<svg width="114" height="114" viewBox="0 0 114 114" fill="none" xmlns="http://www.w3.org/2000/svg">
<circle cx="57" cy="57" r="57" fill="#D2D2D2" fill-opacity="0.5"/>
<path d="M56.6486 33.7871C52.2528 33.7871 48.4507 34.735 45.2424 36.6309C42.0549 38.5267 39.5861 41.2142 37.8361 44.6934C36.107 48.1934 35.2424 52.3288 35.2424 57.0996V57.1621C35.2424 61.9329 36.1174 66.0579 37.8674 69.5371C39.6174 73.0163 42.0861 75.7038 45.2736 77.5996C48.482 79.4954 52.2736 80.4434 56.6486 80.4434C61.0236 80.4434 64.8049 79.4954 67.9924 77.5996C71.2007 75.7038 73.6695 73.0163 75.3986 69.5371C77.1486 66.0579 78.0236 61.9329 78.0236 57.1621V57.0996C78.0236 52.3288 77.1486 48.1934 75.3986 44.6934C73.6695 41.2142 71.2111 38.5267 68.0236 36.6309C64.8361 34.735 61.0445 33.7871 56.6486 33.7871ZM56.6486 40.7559C59.3778 40.7559 61.7216 41.4225 63.6799 42.7559C65.6591 44.11 67.1799 46.0059 68.2424 48.4434C69.3049 50.9017 69.8361 53.7871 69.8361 57.0996V57.1621C69.8361 60.4954 69.2945 63.3809 68.2111 65.8184C67.1486 68.2767 65.6278 70.1621 63.6486 71.4746C61.6695 72.8079 59.3361 73.4746 56.6486 73.4746C53.982 73.4746 51.6486 72.8079 49.6486 71.4746C47.6695 70.1621 46.1382 68.2871 45.0549 65.8496C43.9924 63.4121 43.4611 60.5163 43.4611 57.1621V57.0996C43.4611 53.7663 43.9924 50.8704 45.0549 48.4121C46.1382 45.9746 47.6695 44.0892 49.6486 42.7559C51.6278 41.4225 53.9611 40.7559 56.6486 40.7559Z" fill="#334155"/>
</svg>
