<svg width="96" height="21" viewBox="0 0 96 21" fill="none" xmlns="http://www.w3.org/2000/svg">
<path d="M9.93136 15.2025L13.7114 17.6025C14.1989 17.91 14.7989 17.4525 14.6564 16.89L13.5614 12.585C13.5318 12.4657 13.5365 12.3404 13.5749 12.2237C13.6134 12.1069 13.6841 12.0034 13.7789 11.925L17.1689 9.09752C17.6114 8.73002 17.3864 7.98752 16.8089 7.95002L12.3839 7.66502C12.2631 7.65799 12.1471 7.61595 12.0498 7.54403C11.9526 7.4721 11.8784 7.37341 11.8364 7.26002L10.1864 3.10502C10.1427 2.98495 10.0631 2.88122 9.95846 2.80793C9.85381 2.73463 9.72913 2.69531 9.60136 2.69531C9.47359 2.69531 9.34892 2.73463 9.24426 2.80793C9.13961 2.88122 9.06004 2.98495 9.01636 3.10502L7.36636 7.26002C7.32431 7.37341 7.25014 7.4721 7.15291 7.54403C7.05568 7.61595 6.9396 7.65799 6.81886 7.66502L2.39386 7.95002C1.81636 7.98752 1.59136 8.73002 2.03386 9.09752L5.42386 11.925C5.51862 12.0034 5.5893 12.1069 5.62778 12.2237C5.66627 12.3404 5.67097 12.4657 5.64136 12.585L4.62886 16.575C4.45636 17.25 5.17636 17.7975 5.75386 17.43L9.27136 15.2025C9.37 15.1398 9.48447 15.1065 9.60136 15.1065C9.71826 15.1065 9.83273 15.1398 9.93136 15.2025V15.2025Z" fill="#FEC84B"/>
<path d="M29.1286 15.2025L32.9086 17.6025C33.3961 17.91 33.9961 17.4525 33.8536 16.89L32.7586 12.585C32.729 12.4657 32.7337 12.3404 32.7722 12.2237C32.8107 12.1069 32.8814 12.0034 32.9761 11.925L36.3661 9.09752C36.8086 8.73002 36.5836 7.98752 36.0061 7.95002L31.5811 7.66502C31.4604 7.65799 31.3443 7.61595 31.2471 7.54403C31.1499 7.4721 31.0757 7.37341 31.0336 7.26002L29.3836 3.10502C29.34 2.98495 29.2604 2.88122 29.1557 2.80793C29.0511 2.73463 28.9264 2.69531 28.7986 2.69531C28.6709 2.69531 28.5462 2.73463 28.4415 2.80793C28.3369 2.88122 28.2573 2.98495 28.2136 3.10502L26.5636 7.26002C26.5216 7.37341 26.4474 7.4721 26.3502 7.54403C26.2529 7.61595 26.1369 7.65799 26.0161 7.66502L21.5911 7.95002C21.0136 7.98752 20.7886 8.73002 21.2311 9.09752L24.6211 11.925C24.7159 12.0034 24.7866 12.1069 24.8251 12.2237C24.8635 12.3404 24.8682 12.4657 24.8386 12.585L23.8261 16.575C23.6536 17.25 24.3736 17.7975 24.9511 17.43L28.4686 15.2025C28.5673 15.1398 28.6817 15.1065 28.7986 15.1065C28.9155 15.1065 29.03 15.1398 29.1286 15.2025V15.2025Z" fill="#FEC84B"/>
<path d="M48.3318 15.2025L52.1118 17.6025C52.5993 17.91 53.1993 17.4525 53.0568 16.89L51.9618 12.585C51.9321 12.4657 51.9369 12.3404 51.9753 12.2237C52.0138 12.1069 52.0845 12.0034 52.1793 11.925L55.5693 9.09752C56.0118 8.73002 55.7868 7.98752 55.2093 7.95002L50.7843 7.66502C50.6635 7.65799 50.5474 7.61595 50.4502 7.54403C50.353 7.4721 50.2788 7.37341 50.2368 7.26002L48.5868 3.10502C48.5431 2.98495 48.4635 2.88122 48.3589 2.80793C48.2542 2.73463 48.1295 2.69531 48.0018 2.69531C47.874 2.69531 47.7493 2.73463 47.6447 2.80793C47.54 2.88122 47.4604 2.98495 47.4168 3.10502L45.7668 7.26002C45.7247 7.37341 45.6505 7.4721 45.5533 7.54403C45.4561 7.61595 45.34 7.65799 45.2193 7.66502L40.7943 7.95002C40.2168 7.98752 39.9918 8.73002 40.4343 9.09752L43.8243 11.925C43.919 12.0034 43.9897 12.1069 44.0282 12.2237C44.0667 12.3404 44.0714 12.4657 44.0418 12.585L43.0293 16.575C42.8568 17.25 43.5768 17.7975 44.1543 17.43L47.6718 15.2025C47.7704 15.1398 47.8849 15.1065 48.0018 15.1065C48.1186 15.1065 48.2331 15.1398 48.3318 15.2025V15.2025Z" fill="#FEC84B"/>
<path d="M67.529 15.2025L71.309 17.6025C71.7965 17.91 72.3965 17.4525 72.254 16.89L71.159 12.585C71.1294 12.4657 71.1341 12.3404 71.1726 12.2237C71.2111 12.1069 71.2818 12.0034 71.3765 11.925L74.7665 9.09752C75.209 8.73002 74.984 7.98752 74.4065 7.95002L69.9815 7.66502C69.8608 7.65799 69.7447 7.61595 69.6475 7.54403C69.5502 7.4721 69.4761 7.37341 69.434 7.26002L67.784 3.10502C67.7403 2.98495 67.6608 2.88122 67.5561 2.80793C67.4515 2.73463 67.3268 2.69531 67.199 2.69531C67.0713 2.69531 66.9466 2.73463 66.8419 2.80793C66.7373 2.88122 66.6577 2.98495 66.614 3.10502L64.964 7.26002C64.922 7.37341 64.8478 7.4721 64.7506 7.54403C64.6533 7.61595 64.5373 7.65799 64.4165 7.66502L59.9915 7.95002C59.414 7.98752 59.189 8.73002 59.6315 9.09752L63.0215 11.925C63.1163 12.0034 63.187 12.1069 63.2254 12.2237C63.2639 12.3404 63.2686 12.4657 63.239 12.585L62.2265 16.575C62.054 17.25 62.774 17.7975 63.3515 17.43L66.869 15.2025C66.9677 15.1398 67.0821 15.1065 67.199 15.1065C67.3159 15.1065 67.4304 15.1398 67.529 15.2025V15.2025Z" fill="#FEC84B"/>
<path d="M86.7321 15.2025L90.5121 17.6025C90.9996 17.91 91.5996 17.4525 91.4571 16.89L90.3621 12.585C90.3325 12.4657 90.3372 12.3404 90.3757 12.2237C90.4142 12.1069 90.4849 12.0034 90.5796 11.925L93.9696 9.09752C94.4121 8.73002 94.1871 7.98752 93.6096 7.95002L89.1846 7.66502C89.0639 7.65799 88.9478 7.61595 88.8506 7.54403C88.7534 7.4721 88.6792 7.37341 88.6371 7.26002L86.9871 3.10502C86.9435 2.98495 86.8639 2.88122 86.7592 2.80793C86.6546 2.73463 86.5299 2.69531 86.4021 2.69531C86.2744 2.69531 86.1497 2.73463 86.045 2.80793C85.9404 2.88122 85.8608 2.98495 85.8171 3.10502L84.1671 7.26002C84.1251 7.37341 84.0509 7.4721 83.9537 7.54403C83.8565 7.61595 83.7404 7.65799 83.6196 7.66502L79.1946 7.95002C78.6171 7.98752 78.3921 8.73002 78.8346 9.09752L82.2246 11.925C82.3194 12.0034 82.3901 12.1069 82.4286 12.2237C82.467 12.3404 82.4718 12.4657 82.4421 12.585L81.4296 16.575C81.2571 17.25 81.9771 17.7975 82.5546 17.43L86.0721 15.2025C86.1708 15.1398 86.2853 15.1065 86.4021 15.1065C86.519 15.1065 86.6335 15.1398 86.7321 15.2025V15.2025Z" fill="#FEC84B"/>
</svg>
