<svg width="20" height="21" viewBox="0 0 20 21" fill="none" xmlns="http://www.w3.org/2000/svg">
<path d="M9.65416 1.56438C9.76302 1.22936 10.237 1.22936 10.3458 1.56438L12.1635 7.15856C12.2122 7.30839 12.3518 7.40983 12.5093 7.40983H18.3914C18.7437 7.40983 18.8901 7.8606 18.6051 8.06765L13.8465 11.525C13.719 11.6176 13.6657 11.7818 13.7144 11.9316L15.532 17.5258C15.6409 17.8608 15.2574 18.1394 14.9724 17.9323L10.2137 14.475C10.0863 14.3824 9.91371 14.3824 9.78626 14.475L5.02757 17.9323C4.74258 18.1394 4.35913 17.8608 4.46799 17.5258L6.28565 11.9316C6.33433 11.7818 6.281 11.6176 6.15355 11.525L1.39485 8.06765C1.10987 7.8606 1.25633 7.40983 1.60859 7.40983H7.49066C7.6482 7.40983 7.78782 7.30839 7.8365 7.15856L9.65416 1.56438Z" fill="#EAB308"/>
</svg>
