<svg width="273" height="288" viewBox="0 0 273 288" fill="none" xmlns="http://www.w3.org/2000/svg">
<rect width="273" height="288" rx="136.5" fill="#5BAE61"/>
<path d="M110.114 181.753L201.641 80.5813C203.801 78.1938 206.32 77 209.2 77C212.08 77 214.6 78.1938 216.76 80.5813C218.92 82.9688 220 85.806 220 89.0928C220 92.3797 218.92 95.2129 216.76 97.5924L117.673 207.419C115.513 209.806 112.993 211 110.114 211C107.234 211 104.714 209.806 102.554 207.419L56.1153 156.087C53.9554 153.699 52.9186 150.866 53.005 147.587C53.0914 144.308 54.2181 141.471 56.3853 139.076C58.5524 136.68 61.1191 135.486 64.0854 135.494C67.0517 135.502 69.6148 136.696 71.7748 139.076L110.114 181.753Z" fill="white"/>
</svg>
