<svg width="71" height="73" viewBox="0 0 71 73" fill="none" xmlns="http://www.w3.org/2000/svg">
<rect x="0.5" y="1" width="70" height="71" rx="9.5" fill="white" fill-opacity="0.51"/>
<rect x="0.5" y="1" width="70" height="71" rx="9.5" stroke="black"/>
<path d="M49.6804 30.1437L29.508 18.412C28.4165 17.7728 27.1775 17.4379 25.9171 17.4414C24.6566 17.4449 23.4195 17.7867 22.3314 18.4319C21.2434 19.0772 20.3431 20.003 19.722 21.1153C19.101 22.2276 18.7812 23.4868 18.7954 24.7649V48.3131C18.7954 50.2339 19.5478 52.076 20.8871 53.4343C22.2265 54.7925 24.043 55.5555 25.9371 55.5555C27.191 55.5533 28.4223 55.2174 29.508 54.5814L49.6804 42.8496C50.7643 42.2134 51.6642 41.2994 52.2898 40.1992C52.9154 39.099 53.2447 37.8514 53.2447 36.5814C53.2447 35.3114 52.9154 34.0637 52.2898 32.9635C51.6642 31.8633 50.7643 30.9493 49.6804 30.3131V30.1437ZM47.5921 39.0167L27.4198 50.9178C26.9677 51.1777 26.4568 51.3143 25.9371 51.3143C25.4174 51.3143 24.9066 51.1777 24.4545 50.9178C24.0036 50.6539 23.6293 50.2742 23.369 49.817C23.1087 49.3597 22.9718 48.8411 22.9718 48.3131V24.6802C22.9718 24.1523 23.1087 23.6336 23.369 23.1764C23.6293 22.7191 24.0036 22.3395 24.4545 22.0755C24.9082 21.8188 25.4177 21.6805 25.9371 21.6731C26.4561 21.6839 26.9648 21.822 27.4198 22.0755L47.5921 33.892C48.0432 34.1558 48.4177 34.5355 48.6781 34.9927C48.9386 35.4499 49.0757 35.9686 49.0757 36.4967C49.0757 37.0247 48.9386 37.5434 48.6781 38.0006C48.4177 38.4579 48.0432 38.8375 47.5921 39.1014V39.0167Z" fill="black"/>
</svg>
